<svg
    width="32"
    height="32"
    viewBox="0 0 32 32"
    fill="#D8D8D9"
    xmlns="http://www.w3.org/2000/svg"
>
    <g>
        <path
            fill-rule="evenodd"
            clip-rule="evenodd"
            d="M22 12.0002H15V5.00015H3V27.0002H22V25.0002H10C7.23858 25.0002 5 22.7616 5 20.0002C5 17.2387 7.23858 15.0002 10 15.0002H22V12.0002ZM25 15.0002V12.0002L15 2.00015H0V30.0002H25V25.0002H27C29.7614 25.0002 32 22.7616 32 20.0002C32 17.2387 29.7614 15.0002 27 15.0002H25ZM16.2045 19.3638H17.8068C17.7765 19.002 17.6903 18.681 17.5483 18.4007C17.4063 18.1204 17.2188 17.8846 16.9858 17.6933C16.7528 17.5002 16.482 17.3534 16.1733 17.253C15.8646 17.1526 15.5265 17.1024 15.1591 17.1024C14.6364 17.1024 14.1629 17.217 13.7386 17.4462C13.3144 17.6734 12.9773 18.0096 12.7273 18.4547C12.4773 18.8979 12.3523 19.4433 12.3523 20.0911C12.3523 20.735 12.4744 21.2795 12.7188 21.7246C12.965 22.1697 13.2992 22.5068 13.7216 22.7359C14.1458 22.9651 14.625 23.0797 15.1591 23.0797C15.5852 23.0797 15.9593 23.0144 16.2812 22.8837C16.6032 22.753 16.8731 22.5806 17.0909 22.3666C17.3106 22.1507 17.4801 21.9159 17.5994 21.6621C17.7188 21.4064 17.7879 21.1555 17.8068 20.9092L16.2045 20.8979C16.1856 21.0229 16.1487 21.1356 16.0938 21.2359C16.0407 21.3344 15.9716 21.4187 15.8864 21.4888C15.8011 21.5589 15.7008 21.6128 15.5852 21.6507C15.4697 21.6867 15.339 21.7047 15.1932 21.7047C14.9375 21.7047 14.7188 21.645 14.5369 21.5257C14.3551 21.4045 14.2159 21.2246 14.1193 20.9859C14.0246 20.7454 13.9773 20.4471 13.9773 20.0911C13.9773 19.7539 14.0237 19.4651 14.1165 19.2246C14.2112 18.9841 14.3494 18.7994 14.5312 18.6706C14.715 18.5418 14.9394 18.4774 15.2045 18.4774C15.3561 18.4774 15.4915 18.4992 15.6108 18.5428C15.7301 18.5844 15.8314 18.645 15.9148 18.7246C16 18.8022 16.0663 18.895 16.1136 19.003C16.1629 19.1109 16.1932 19.2312 16.2045 19.3638ZM21.6811 21.2842L22.8743 17.182H24.6584L22.7379 23.0002H20.5788L18.6584 17.182H20.4425L21.6357 21.2842H21.6811Z"
        />
    </g>
</svg>
    