<svg width="32" height="32" viewBox="0 0 32 32" fill="none" xmlns="http://www.w3.org/2000/svg">
    <path fill-rule="evenodd" clip-rule="evenodd"
        d="M29.5031 16.2512L17.3296 27.1423C16.5826 27.8106 15.3724 27.8097 14.6265 27.1404L2.47266 16.2323C1.72684 15.563 1.72781 14.4785 2.47484 13.8102C3.22186 13.1419 4.43206 13.1427 5.17788 13.8121L14.0715 21.7941V1.71157C14.0724 0.765673 14.9288 -0.000531022 15.9844 0.00020523C17.04 0.000941482 17.8951 0.76834 17.8942 1.71424V21.7968L26.8022 13.8272C27.5492 13.1589 28.7594 13.1597 29.5053 13.8291C30.2511 14.4984 30.2501 15.5829 29.5031 16.2512Z"
        fill="#D8D8D9" />
    <path fill-rule="evenodd" clip-rule="evenodd"
        d="M1.48313e-06 30.3193C-0.00129943 29.3898 0.853381 28.6354 1.90898 28.6343L30.0863 28.6037C31.1419 28.6025 31.9987 29.3551 32 30.2846C32.0013 31.2141 31.1466 31.9685 30.091 31.9696L1.91369 32.0002C0.858092 32.0014 0.0013024 31.2488 1.48313e-06 30.3193Z"
        fill="#D8D8D9" />
</svg>
    