<svg
    width="32"
    height="32"
    viewBox="0 0 32 32"
    fill="#D8D8D9"
    xmlns="http://www.w3.org/2000/svg"
>
    <path
        d="M32 2.35316V29.6473C32 30.2713 31.7522 30.8698 31.3109 31.3111C30.8696 31.7524 30.271 32.0002 29.647 32.0002H2.35294C1.7289 32.0002 1.13042 31.7524 0.689168 31.3111C0.247904 30.8698 0 30.2713 0 29.6473V2.35316C0 1.72911 0.247904 1.13063 0.689168 0.689382C1.13042 0.248118 1.7289 0.000213623 2.35294 0.000213623H29.647C30.271 0.000213623 30.8696 0.248118 31.3109 0.689382C31.7522 1.13063 32 1.72911 32 2.35316ZM9.41176 12.2355H4.70589V27.2943H9.41176V12.2355ZM9.8353 7.05905C9.83778 6.70308 9.77011 6.35012 9.63618 6.02029C9.50226 5.69049 9.30467 5.39028 9.0547 5.13684C8.80475 4.88338 8.50733 4.68164 8.17941 4.54314C7.85149 4.40465 7.49949 4.33209 7.14354 4.32962H7.05883C6.33494 4.32962 5.6407 4.61719 5.12883 5.12905C4.61698 5.64092 4.32941 6.33516 4.32941 7.05905C4.32941 7.78292 4.61698 8.47716 5.12883 8.98903C5.6407 9.50089 6.33494 9.78845 7.05883 9.78845C7.41482 9.79721 7.76904 9.73573 8.10125 9.60754C8.43347 9.47937 8.73718 9.28697 8.99502 9.04137C9.25286 8.79577 9.45979 8.50175 9.60397 8.17615C9.74814 7.85055 9.82675 7.49973 9.8353 7.14375V7.05905ZM27.2941 18.1461C27.2941 13.6191 24.4141 11.859 21.553 11.859C20.6162 11.8121 19.6834 12.0117 18.8478 12.4377C18.0122 12.8637 17.3029 13.5015 16.7906 14.2873H16.6589V12.2355H12.2353V27.2943H16.9411V19.2849C16.8731 18.4647 17.1315 17.6506 17.6602 17.0197C18.189 16.3889 18.9451 15.9921 19.7646 15.9156H19.9435C21.44 15.9156 22.5506 16.8567 22.5506 19.2284V27.2943H27.2565L27.2941 18.1461Z"
    />
</svg>
    