<svg
    width="32"
    height="32"
    viewBox="0 0 32 32"
    fill="#D8D8D9"
    xmlns="http://www.w3.org/2000/svg"
>
    <path
        fill-rule="evenodd"
        clip-rule="evenodd"
        d="M28 7H4C3.44772 7 3 7.44771 3 8V24C3 24.5523 3.44772 25 4 25H28C28.5523 25 29 24.5523 29 24V8C29 7.44772 28.5523 7 28 7ZM4 4C1.79086 4 0 5.79086 0 8V24C0 26.2091 1.79086 28 4 28H28C30.2091 28 32 26.2091 32 24V8C32 5.79086 30.2091 4 28 4H4Z"
    />

    <path
        fill-rule="evenodd" clip-rule="evenodd"
        d="M16.0001 18C15.3272 18 14.3364 17.5633 14.3364 17.5633L6.87396 13.3258C6.07477 12.872 5.76789 11.8051 6.18852 10.9429C6.60915 10.0807 7.598 9.74958 8.39719 10.2034L15.8596 14.4409C15.8871 14.4565 15.914 14.4728 15.9403 14.4898L16.0001 18Z"
    />

    <path
        d="M15.9403 14.4898L16.0001 18C15.3272 18 14.3364 17.5633 14.3364 17.5633C14.3364 17.5633 15.323 18 16.0001 18C16.6287 18 17.4682 17.6383 17.7283 17.5188C17.7824 17.494 17.8344 17.4663 17.8861 17.437L25.126 13.3259C25.9252 12.8721 26.2321 11.8052 25.8115 10.943C25.3909 10.0807 24.402 9.74964 23.6028 10.2034L16.1404 14.4409C16.0337 14.5089 16.0081 14.5252 15.9403 14.4898Z"
    />
</svg>
    